<svg width="100" height="100" viewBox="0 0 100 100" fill="none" xmlns="http://www.w3.org/2000/svg">
  <circle cx="50" cy="50" r="50" fill="#1e88e5"/>
  <path d="M50 22c5.523 0 10 4.477 10 10s-4.477 10-10 10-10-4.477-10-10 4.477-10 10-10zm0 25c13.807 0 25 11.193 25 25 0 5.523-4.477 10-10 10H35c-5.523 0-10-4.477-10-10 0-13.807 11.193-25 25-25zm0-5c-8.284 0-15-6.716-15-15s6.716-15 15-15 15 6.716 15 15-6.716 15-15 15zm0 5c-16.569 0-30 13.431-30 30 0 8.284 6.716 15 15 15h30c8.284 0 15-6.716 15-15 0-16.569-13.431-30-30-30z" fill="white"/>
</svg>